<svg width="56" height="45" viewBox="0 0 56 45" fill="none" xmlns="http://www.w3.org/2000/svg">
<path d="M49.1724 18.0854V13.1383L50.0192 12.7372V18.0854L51.6682 23.1662L49.6181 25.3946L47.5234 23.1662L49.1724 18.0854Z" fill="#3B82F6" stroke="#3B82F6" stroke-width="3"/>
<path d="M18.2866 20.492L15.1223 19.0213L3.66821 43.311H10.5317C13.656 39.2644 15.6384 37.6057 19.2225 35.6898C24.8399 33.3519 29.2701 32.8947 35.4454 30.1633C39.6538 28.0425 41.3053 26.236 43.5568 22.4084C44.9727 19.7158 45.3247 17.9156 45.8743 14.6536L51.3562 12.1578L27.5122 1.63965L3.71278 12.1578L24.6153 21.3834C27.5035 23.1158 28.7667 24.2599 30.4983 26.5533L33.7518 25.1271C31.7695 22.0794 30.2687 20.76 27.2002 18.7984C21.6439 16.0782 18.3991 14.6608 12.5819 12.1578L27.5122 5.42795L42.5317 12.1578L29.3841 18.0853L32.4593 20.492L41.9078 16.3026C40.6774 21.5859 38.9982 23.9455 34.1083 26.999C31.497 28.0013 30.0067 28.5046 27.2894 29.272C23.2527 30.1954 21.3168 30.8254 18.3757 32.1243C14.7377 34.0627 12.9089 35.4302 9.95233 38.2747L18.2866 20.492Z" fill="#3B82F6" stroke="#3B82F6" stroke-width="3"/>
<path d="M37.1835 31.1884C36.0351 31.9475 35.3758 32.307 34.1529 32.7483C37.3211 38.2639 39.8946 40.888 45.4732 43.3109H51.0888L43.1111 26.3304C42.1823 27.4201 41.6308 27.9921 40.5707 28.9154L45.4732 39.7455C41.3107 37.1326 39.7133 35.0876 37.1835 31.1884Z" fill="#3B82F6" stroke="#3B82F6" stroke-width="3"/>
</svg>
